<mxfile host="app.diagrams.net" agent="Mozilla/5.0 (Windows NT 10.0; Win64; x64) AppleWebKit/537.36 (KHTML, like Gecko) Chrome/131.0.0.0 Safari/537.36" version="26.0.6">
  <diagram name="Strona-1" id="UVxOczXDQQqKOV7Ga7wD">
    <mxGraphModel dx="1647" dy="839" grid="1" gridSize="10" guides="1" tooltips="1" connect="1" arrows="1" fold="1" page="1" pageScale="1" pageWidth="827" pageHeight="1169" math="0" shadow="0">
      <root>
        <mxCell id="0" />
        <mxCell id="1" parent="0" />
        <mxCell id="31zauGwYh5bZxP1_ocvh-23" style="edgeStyle=orthogonalEdgeStyle;rounded=0;orthogonalLoop=1;jettySize=auto;html=1;exitX=1;exitY=0.5;exitDx=0;exitDy=0;" edge="1" parent="1" source="31zauGwYh5bZxP1_ocvh-1" target="31zauGwYh5bZxP1_ocvh-14">
          <mxGeometry relative="1" as="geometry" />
        </mxCell>
        <mxCell id="31zauGwYh5bZxP1_ocvh-1" value="DYSTRYBUTOR" style="shape=process;whiteSpace=wrap;html=1;backgroundOutline=1;fillColor=#d5e8d4;strokeColor=#82b366;" vertex="1" parent="1">
          <mxGeometry x="480" y="270" width="210" height="100" as="geometry" />
        </mxCell>
        <mxCell id="31zauGwYh5bZxP1_ocvh-2" value="PRODUCENT_2" style="shape=process;whiteSpace=wrap;html=1;backgroundOutline=1;fillColor=#dae8fc;strokeColor=#6c8ebf;" vertex="1" parent="1">
          <mxGeometry x="190" y="290" width="120" height="60" as="geometry" />
        </mxCell>
        <mxCell id="31zauGwYh5bZxP1_ocvh-3" value="PRODUCENT_1" style="shape=process;whiteSpace=wrap;html=1;backgroundOutline=1;fillColor=#dae8fc;strokeColor=#6c8ebf;" vertex="1" parent="1">
          <mxGeometry x="190" y="170" width="120" height="60" as="geometry" />
        </mxCell>
        <mxCell id="31zauGwYh5bZxP1_ocvh-4" value="PRODUCENT_3" style="shape=process;whiteSpace=wrap;html=1;backgroundOutline=1;fillColor=#dae8fc;strokeColor=#6c8ebf;" vertex="1" parent="1">
          <mxGeometry x="190" y="400" width="120" height="60" as="geometry" />
        </mxCell>
        <mxCell id="31zauGwYh5bZxP1_ocvh-5" value="KLIENT_1" style="shape=process;whiteSpace=wrap;html=1;backgroundOutline=1;fillColor=#fff2cc;strokeColor=#d6b656;" vertex="1" parent="1">
          <mxGeometry x="1020" y="190" width="120" height="60" as="geometry" />
        </mxCell>
        <mxCell id="31zauGwYh5bZxP1_ocvh-6" value="KLIENT_2" style="shape=process;whiteSpace=wrap;html=1;backgroundOutline=1;fillColor=#fff2cc;strokeColor=#d6b656;" vertex="1" parent="1">
          <mxGeometry x="1020" y="290" width="120" height="60" as="geometry" />
        </mxCell>
        <mxCell id="31zauGwYh5bZxP1_ocvh-7" value="KLIENT_2" style="shape=process;whiteSpace=wrap;html=1;backgroundOutline=1;fillColor=#fff2cc;strokeColor=#d6b656;" vertex="1" parent="1">
          <mxGeometry x="1020" y="390" width="120" height="60" as="geometry" />
        </mxCell>
        <mxCell id="31zauGwYh5bZxP1_ocvh-12" value="" style="shape=cylinder3;whiteSpace=wrap;html=1;boundedLbl=1;backgroundOutline=1;size=15;rotation=90;fontFamily=Courier New;" vertex="1" parent="1">
          <mxGeometry x="512.5" y="15" width="145" height="215" as="geometry" />
        </mxCell>
        <mxCell id="31zauGwYh5bZxP1_ocvh-45" style="edgeStyle=orthogonalEdgeStyle;rounded=0;orthogonalLoop=1;jettySize=auto;html=1;exitX=0.5;exitY=0;exitDx=0;exitDy=0;exitPerimeter=0;" edge="1" parent="1" source="31zauGwYh5bZxP1_ocvh-13" target="31zauGwYh5bZxP1_ocvh-5">
          <mxGeometry relative="1" as="geometry" />
        </mxCell>
        <mxCell id="31zauGwYh5bZxP1_ocvh-13" value="" style="shape=cylinder3;whiteSpace=wrap;html=1;boundedLbl=1;backgroundOutline=1;size=15;rotation=90;" vertex="1" parent="1">
          <mxGeometry x="890" y="130" width="40" height="180" as="geometry" />
        </mxCell>
        <mxCell id="31zauGwYh5bZxP1_ocvh-46" style="edgeStyle=orthogonalEdgeStyle;rounded=0;orthogonalLoop=1;jettySize=auto;html=1;exitX=0.5;exitY=0;exitDx=0;exitDy=0;exitPerimeter=0;" edge="1" parent="1" source="31zauGwYh5bZxP1_ocvh-14" target="31zauGwYh5bZxP1_ocvh-6">
          <mxGeometry relative="1" as="geometry" />
        </mxCell>
        <mxCell id="31zauGwYh5bZxP1_ocvh-48" value="" style="edgeStyle=orthogonalEdgeStyle;rounded=0;orthogonalLoop=1;jettySize=auto;html=1;" edge="1" parent="1" source="31zauGwYh5bZxP1_ocvh-14" target="31zauGwYh5bZxP1_ocvh-6">
          <mxGeometry relative="1" as="geometry" />
        </mxCell>
        <mxCell id="31zauGwYh5bZxP1_ocvh-49" style="edgeStyle=orthogonalEdgeStyle;rounded=0;orthogonalLoop=1;jettySize=auto;html=1;exitX=0.5;exitY=1;exitDx=0;exitDy=0;exitPerimeter=0;entryX=1;entryY=0.5;entryDx=0;entryDy=0;" edge="1" parent="1" source="31zauGwYh5bZxP1_ocvh-14" target="31zauGwYh5bZxP1_ocvh-1">
          <mxGeometry relative="1" as="geometry" />
        </mxCell>
        <mxCell id="31zauGwYh5bZxP1_ocvh-14" value="" style="shape=cylinder3;whiteSpace=wrap;html=1;boundedLbl=1;backgroundOutline=1;size=15;rotation=90;" vertex="1" parent="1">
          <mxGeometry x="890" y="230" width="40" height="180" as="geometry" />
        </mxCell>
        <mxCell id="31zauGwYh5bZxP1_ocvh-50" style="edgeStyle=orthogonalEdgeStyle;rounded=0;orthogonalLoop=1;jettySize=auto;html=1;exitX=0.5;exitY=1;exitDx=0;exitDy=0;exitPerimeter=0;entryX=1;entryY=1;entryDx=0;entryDy=0;" edge="1" parent="1" source="31zauGwYh5bZxP1_ocvh-15" target="31zauGwYh5bZxP1_ocvh-1">
          <mxGeometry relative="1" as="geometry">
            <Array as="points">
              <mxPoint x="730" y="420" />
              <mxPoint x="730" y="370" />
            </Array>
          </mxGeometry>
        </mxCell>
        <mxCell id="31zauGwYh5bZxP1_ocvh-15" value="" style="shape=cylinder3;whiteSpace=wrap;html=1;boundedLbl=1;backgroundOutline=1;size=15;rotation=90;" vertex="1" parent="1">
          <mxGeometry x="890" y="330" width="40" height="180" as="geometry" />
        </mxCell>
        <mxCell id="31zauGwYh5bZxP1_ocvh-21" style="edgeStyle=orthogonalEdgeStyle;rounded=0;orthogonalLoop=1;jettySize=auto;html=1;exitX=1;exitY=0;exitDx=0;exitDy=0;entryX=0.5;entryY=1;entryDx=0;entryDy=0;entryPerimeter=0;" edge="1" parent="1" source="31zauGwYh5bZxP1_ocvh-1" target="31zauGwYh5bZxP1_ocvh-13">
          <mxGeometry relative="1" as="geometry">
            <Array as="points">
              <mxPoint x="730" y="270" />
              <mxPoint x="730" y="220" />
            </Array>
          </mxGeometry>
        </mxCell>
        <mxCell id="31zauGwYh5bZxP1_ocvh-22" style="edgeStyle=orthogonalEdgeStyle;rounded=0;orthogonalLoop=1;jettySize=auto;html=1;exitX=1;exitY=1;exitDx=0;exitDy=0;entryX=0.5;entryY=1;entryDx=0;entryDy=0;entryPerimeter=0;" edge="1" parent="1" source="31zauGwYh5bZxP1_ocvh-1" target="31zauGwYh5bZxP1_ocvh-15">
          <mxGeometry relative="1" as="geometry">
            <Array as="points">
              <mxPoint x="730" y="370" />
              <mxPoint x="730" y="420" />
            </Array>
          </mxGeometry>
        </mxCell>
        <mxCell id="31zauGwYh5bZxP1_ocvh-25" value="" style="endArrow=classic;startArrow=classic;html=1;rounded=0;exitX=1;exitY=0.5;exitDx=0;exitDy=0;" edge="1" parent="1" source="31zauGwYh5bZxP1_ocvh-3" target="31zauGwYh5bZxP1_ocvh-12">
          <mxGeometry width="50" height="50" relative="1" as="geometry">
            <mxPoint x="600" y="410" as="sourcePoint" />
            <mxPoint x="650" y="360" as="targetPoint" />
            <Array as="points">
              <mxPoint x="400" y="200" />
              <mxPoint x="400" y="120" />
            </Array>
          </mxGeometry>
        </mxCell>
        <mxCell id="31zauGwYh5bZxP1_ocvh-29" value="" style="endArrow=classic;html=1;rounded=0;entryX=1;entryY=0.5;entryDx=0;entryDy=0;" edge="1" parent="1" target="31zauGwYh5bZxP1_ocvh-2">
          <mxGeometry width="50" height="50" relative="1" as="geometry">
            <mxPoint x="400" y="200" as="sourcePoint" />
            <mxPoint x="660" y="210" as="targetPoint" />
            <Array as="points">
              <mxPoint x="400" y="320" />
            </Array>
          </mxGeometry>
        </mxCell>
        <mxCell id="31zauGwYh5bZxP1_ocvh-30" value="" style="endArrow=classic;html=1;rounded=0;entryX=1;entryY=0.5;entryDx=0;entryDy=0;" edge="1" parent="1" target="31zauGwYh5bZxP1_ocvh-4">
          <mxGeometry width="50" height="50" relative="1" as="geometry">
            <mxPoint x="400" y="320" as="sourcePoint" />
            <mxPoint x="550" y="280" as="targetPoint" />
            <Array as="points">
              <mxPoint x="400" y="430" />
            </Array>
          </mxGeometry>
        </mxCell>
        <mxCell id="31zauGwYh5bZxP1_ocvh-31" value="" style="endArrow=classic;startArrow=classic;html=1;rounded=0;entryX=1;entryY=0.5;entryDx=0;entryDy=0;entryPerimeter=0;exitX=0.5;exitY=0;exitDx=0;exitDy=0;" edge="1" parent="1" source="31zauGwYh5bZxP1_ocvh-1" target="31zauGwYh5bZxP1_ocvh-12">
          <mxGeometry width="50" height="50" relative="1" as="geometry">
            <mxPoint x="510" y="380" as="sourcePoint" />
            <mxPoint x="560" y="330" as="targetPoint" />
          </mxGeometry>
        </mxCell>
        <mxCell id="31zauGwYh5bZxP1_ocvh-36" value="" style="endArrow=classic;startArrow=classic;html=1;rounded=0;entryX=0.5;entryY=0;entryDx=0;entryDy=0;entryPerimeter=0;exitX=0.5;exitY=0;exitDx=0;exitDy=0;strokeColor=#FF3399;" edge="1" parent="1" source="31zauGwYh5bZxP1_ocvh-7" target="31zauGwYh5bZxP1_ocvh-12">
          <mxGeometry width="50" height="50" relative="1" as="geometry">
            <mxPoint x="980" y="123" as="sourcePoint" />
            <mxPoint x="910" y="280" as="targetPoint" />
            <Array as="points">
              <mxPoint x="1080" y="370" />
              <mxPoint x="770" y="370" />
              <mxPoint x="770" y="123" />
            </Array>
          </mxGeometry>
        </mxCell>
        <mxCell id="31zauGwYh5bZxP1_ocvh-37" value="" style="endArrow=classic;startArrow=classic;html=1;rounded=0;entryX=0.5;entryY=0;entryDx=0;entryDy=0;exitX=0.5;exitY=0;exitDx=0;exitDy=0;exitPerimeter=0;strokeColor=#FF3399;" edge="1" parent="1" source="31zauGwYh5bZxP1_ocvh-12" target="31zauGwYh5bZxP1_ocvh-6">
          <mxGeometry width="50" height="50" relative="1" as="geometry">
            <mxPoint x="990" y="270" as="sourcePoint" />
            <mxPoint x="1040" y="220" as="targetPoint" />
            <Array as="points">
              <mxPoint x="770" y="123" />
              <mxPoint x="770" y="260" />
              <mxPoint x="1080" y="260" />
            </Array>
          </mxGeometry>
        </mxCell>
        <mxCell id="31zauGwYh5bZxP1_ocvh-39" value="" style="endArrow=classic;html=1;rounded=0;entryX=0.5;entryY=0;entryDx=0;entryDy=0;fillColor=#f8cecc;strokeColor=#FF3399;" edge="1" parent="1" target="31zauGwYh5bZxP1_ocvh-5">
          <mxGeometry width="50" height="50" relative="1" as="geometry">
            <mxPoint x="680" y="170" as="sourcePoint" />
            <mxPoint x="790" y="220" as="targetPoint" />
            <Array as="points">
              <mxPoint x="1080" y="170" />
            </Array>
          </mxGeometry>
        </mxCell>
        <mxCell id="31zauGwYh5bZxP1_ocvh-40" value="PUBLIC QUEUE" style="text;strokeColor=none;fillColor=none;align=left;verticalAlign=middle;spacingLeft=4;spacingRight=4;overflow=hidden;points=[[0,0.5],[1,0.5]];portConstraint=eastwest;rotatable=0;whiteSpace=wrap;html=1;" vertex="1" parent="1">
          <mxGeometry x="530" y="107.5" width="110" height="30" as="geometry" />
        </mxCell>
        <mxCell id="31zauGwYh5bZxP1_ocvh-41" value="&lt;h4 style=&quot;margin: 0.67em 0px; color: rgb(51, 51, 51); background-color: rgb(255, 255, 255);&quot;&gt;&lt;span style=&quot;color: rgb(34, 34, 34); font-weight: normal;&quot; class=&quot;hw&quot;&gt;&lt;font style=&quot;font-size: 13px;&quot; face=&quot;Helvetica&quot;&gt;private queue&lt;/font&gt;&lt;/span&gt;&lt;/h4&gt;&amp;nbsp;" style="text;strokeColor=none;fillColor=none;align=left;verticalAlign=middle;spacingLeft=4;spacingRight=4;overflow=hidden;points=[[0,0.5],[1,0.5]];portConstraint=eastwest;rotatable=0;whiteSpace=wrap;html=1;" vertex="1" parent="1">
          <mxGeometry x="855" y="205" width="110" height="30" as="geometry" />
        </mxCell>
        <mxCell id="31zauGwYh5bZxP1_ocvh-42" value="&lt;h4 style=&quot;margin: 0.67em 0px; color: rgb(51, 51, 51); background-color: rgb(255, 255, 255);&quot;&gt;&lt;span style=&quot;color: rgb(34, 34, 34); font-weight: normal;&quot; class=&quot;hw&quot;&gt;&lt;font style=&quot;font-size: 13px;&quot; face=&quot;Helvetica&quot;&gt;private queue&lt;/font&gt;&lt;/span&gt;&lt;/h4&gt;&amp;nbsp;" style="text;strokeColor=none;fillColor=none;align=left;verticalAlign=middle;spacingLeft=4;spacingRight=4;overflow=hidden;points=[[0,0.5],[1,0.5]];portConstraint=eastwest;rotatable=0;whiteSpace=wrap;html=1;" vertex="1" parent="1">
          <mxGeometry x="855" y="305" width="110" height="30" as="geometry" />
        </mxCell>
        <mxCell id="31zauGwYh5bZxP1_ocvh-43" value="&lt;h4 style=&quot;margin: 0.67em 0px; color: rgb(51, 51, 51); background-color: rgb(255, 255, 255);&quot;&gt;&lt;span style=&quot;color: rgb(34, 34, 34); font-weight: normal;&quot; class=&quot;hw&quot;&gt;&lt;font style=&quot;font-size: 13px;&quot; face=&quot;Helvetica&quot;&gt;private queue&lt;/font&gt;&lt;/span&gt;&lt;/h4&gt;&amp;nbsp;" style="text;strokeColor=none;fillColor=none;align=left;verticalAlign=middle;spacingLeft=4;spacingRight=4;overflow=hidden;points=[[0,0.5],[1,0.5]];portConstraint=eastwest;rotatable=0;whiteSpace=wrap;html=1;" vertex="1" parent="1">
          <mxGeometry x="855" y="405" width="110" height="30" as="geometry" />
        </mxCell>
        <mxCell id="31zauGwYh5bZxP1_ocvh-52" value="" style="endArrow=classic;startArrow=classic;html=1;rounded=0;entryX=0;entryY=0.5;entryDx=0;entryDy=0;exitX=0.5;exitY=0;exitDx=0;exitDy=0;exitPerimeter=0;" edge="1" parent="1" source="31zauGwYh5bZxP1_ocvh-15" target="31zauGwYh5bZxP1_ocvh-7">
          <mxGeometry width="50" height="50" relative="1" as="geometry">
            <mxPoint x="850" y="390" as="sourcePoint" />
            <mxPoint x="900" y="340" as="targetPoint" />
          </mxGeometry>
        </mxCell>
        <mxCell id="31zauGwYh5bZxP1_ocvh-53" value="" style="endArrow=classic;startArrow=classic;html=1;rounded=0;entryX=0;entryY=0.5;entryDx=0;entryDy=0;" edge="1" parent="1" target="31zauGwYh5bZxP1_ocvh-6">
          <mxGeometry width="50" height="50" relative="1" as="geometry">
            <mxPoint x="1000" y="320" as="sourcePoint" />
            <mxPoint x="1030" y="430" as="targetPoint" />
            <Array as="points">
              <mxPoint x="1010" y="320" />
            </Array>
          </mxGeometry>
        </mxCell>
        <mxCell id="31zauGwYh5bZxP1_ocvh-54" value="" style="endArrow=classic;startArrow=classic;html=1;rounded=0;entryX=0;entryY=0.5;entryDx=0;entryDy=0;exitX=0.5;exitY=0;exitDx=0;exitDy=0;exitPerimeter=0;" edge="1" parent="1">
          <mxGeometry width="50" height="50" relative="1" as="geometry">
            <mxPoint x="1000" y="219.86" as="sourcePoint" />
            <mxPoint x="1020" y="219.86" as="targetPoint" />
          </mxGeometry>
        </mxCell>
      </root>
    </mxGraphModel>
  </diagram>
</mxfile>
